Patient4_TMGait_0pt4_03_right_39_GRF.mot
version=1
nRows=45
nColumns=19
inDegrees=no
endheader
time	F1x	F1y	F1z	M1x	M1y	M1z	F2x	F2y	F2z	M2x	M2y	M2z	EC1x	EC1y	EC1z	EC2x	EC2y	EC2z
51.05	-27.3294	799.0084	60.1172	-272.8047	-73.3867	883.0278	-5.4757	-19.6419	-0.8975	-2.8061	0.32864	-20.4685	-0.0592	0.0182	-0.0073	-0.0462	0.0165	0.9585
51.0633	-21.4045	790.025	62.4939	-269.4003	-73.4647	873.8431	-3.8375	-12.0083	-0.68071	-1.4597	0.35331	-12.2373	-0.0592	0.0182	-0.0073	-0.0462	0.0165	0.9585
51.0766	-16.0792	780.3225	64.2212	-265.5773	-73.0015	863.1801	-2.3986	-5.5621	-0.48073	-0.3266	0.3592	-5.3277	-0.0592	0.0182	-0.0073	-0.0462	0.0165	0.9585
51.0899	-11.6122	770.5312	65.2566	-261.573	-72.0601	851.666	-1.2624	-0.66183	-0.32429	0.53555	0.35855	-0.10768	-0.0592	0.0182	-0.0073	-0.0462	0.0165	0.9585
51.1031	-7.9931	761.1968	65.6896	-257.6194	-70.7521	839.9405	-0.45839	2.7374	-0.2229	1.1381	0.36452	3.4921	-0.0592	0.0182	-0.0073	-0.0462	0.0165	0.9585
51.1164	-5.0594	752.7461	65.6488	-253.9226	-69.1812	828.561	0.060927	4.8404	-0.17384	1.5167	0.37958	5.6925	-0.0592	0.0182	-0.0073	-0.0462	0.0165	0.9585
51.1297	-2.6073	745.4609	65.286	-250.6402	-67.4505	817.9295	0.32654	5.9432	-0.17047	1.7216	0.41647	6.8339	-0.0592	0.0182	-0.0073	-0.0462	0.0165	0.9585
51.143	-0.39771	739.5067	64.7274	-247.8798	-65.6227	808.2957	0.41631	6.3193	-0.20538	1.7941	0.47855	7.2021	-0.0592	0.0182	-0.0073	-0.0462	0.0165	0.9585
51.1563	1.8002	734.958	64.0982	-245.7035	-63.7537	799.793	0.37364	6.1827	-0.26887	1.7586	0.57038	7.0209	-0.0592	0.0182	-0.0073	-0.0462	0.0165	0.9585
51.1696	4.1994	731.8575	63.4808	-244.1468	-61.8636	792.498	0.23007	5.6707	-0.34631	1.6229	0.68802	6.4246	-0.0592	0.0182	-0.0073	-0.0462	0.0165	0.9585
51.1829	6.9417	730.2351	62.9551	-243.2236	-59.9831	786.4704	0.040908	4.8599	-0.43191	1.385	0.82388	5.4753	-0.0592	0.0182	-0.0073	-0.0462	0.0165	0.9585
51.1961	10.1184	730.132	62.5686	-242.9342	-58.1273	781.7781	-0.17098	3.7881	-0.51717	1.0396	0.96486	4.2103	-0.0592	0.0182	-0.0073	-0.0462	0.0165	0.9585
51.2094	13.7297	731.5887	62.3595	-243.2635	-56.3298	778.525	-0.35628	2.4332	-0.59059	0.57207	1.0814	2.5859	-0.0592	0.0182	-0.0073	-0.0462	0.0165	0.9585
51.2227	17.7069	734.6	62.3597	-244.168	-54.638	776.7968	-0.47545	0.82279	-0.63032	-0.010637	1.1303	0.63952	-0.0592	0.0182	-0.0073	-0.0462	0.0165	0.9585
51.236	21.9327	739.0561	62.6142	-245.5622	-53.1271	776.5947	-0.44926	-0.9626	-0.60198	-0.67577	1.0418	-1.534	-0.0592	0.0182	-0.0073	-0.0462	0.0165	0.9585
51.2493	26.254	744.6758	63.1679	-247.3022	-51.8855	777.7623	-0.20149	-2.7229	-0.45483	-1.3404	0.72571	-3.6837	-0.0592	0.0182	-0.0073	-0.0462	0.0165	0.9585
51.2626	30.5038	750.9118	64.0424	-249.1605	-50.9895	779.8624	0.35877	-4.05	-0.13581	-1.8399	0.08323	-5.3052	-0.0592	0.0182	-0.0073	-0.0462	0.0165	0.9585
51.2759	34.4728	756.8915	65.2155	-250.813	-50.4875	782.1154	1.3484	-4.2837	0.41556	-1.9108	-1.001	-5.6036	-0.0592	0.0182	-0.0073	-0.0462	0.0165	0.9585
51.2891	37.972	761.5219	66.6071	-251.8792	-50.3748	783.4775	2.8307	-2.4595	1.2582	-1.1739	-2.6234	-3.3963	-0.0592	0.0182	-0.0073	-0.0462	0.0165	0.9585
51.3024	40.8144	763.6806	68.0822	-251.9903	-50.5916	782.8487	4.8485	2.6789	2.4272	0.8638	-4.8291	2.8482	-0.0592	0.0182	-0.0073	-0.0462	0.0165	0.9585
51.3157	42.8821	762.3991	69.4908	-250.8464	-51.0436	779.2493	7.3258	12.6448	3.8896	4.7886	-7.54	14.9917	-0.0592	0.0182	-0.0073	-0.0462	0.0165	0.9585
51.329	44.135	756.9126	70.6741	-248.2283	-51.5964	771.8707	10.0045	28.9636	5.5194	11.1904	-10.4901	34.9138	-0.0592	0.0182	-0.0073	-0.0462	0.0165	0.9585
51.3423	44.5969	746.6369	71.4816	-243.9804	-52.1019	760.0864	12.3481	52.8167	7.0308	20.5177	-13.109	64.0748	-0.0592	0.0182	-0.0073	-0.0462	0.0165	0.9585
51.3556	44.3552	731.0687	71.7307	-237.9797	-52.3579	743.3379	13.4464	84.5053	7.9417	32.8672	-14.451	102.8686	-0.0592	0.0182	-0.0073	-0.0462	0.0165	0.9585
51.3689	43.526	709.7778	71.2325	-230.1307	-52.1467	721.1472	12.1445	122.8292	7.6974	47.7479	-13.3934	149.8468	-0.0592	0.0182	-0.0073	-0.0462	0.0165	0.9585
51.3821	42.253	682.5361	69.7716	-220.4098	-51.216	693.2348	7.8906	164.9649	5.693	64.0364	-9.0285	201.5487	-0.0592	0.0182	-0.0073	-0.0462	0.0165	0.9585
51.3954	40.6972	649.564	67.2122	-208.9397	-49.3776	659.7689	1.3868	207.6713	1.8526	80.4676	-1.5934	253.9128	-0.0592	0.0182	-0.0073	-0.0462	0.0165	0.9585
51.4087	39.0351	611.717	63.5243	-196.0452	-46.5374	621.5331	-6.2835	248.7695	-3.265	96.2202	7.7773	304.0928	-0.0592	0.0182	-0.0073	-0.0462	0.0165	0.9585
51.422	37.4349	570.3047	58.8642	-182.1855	-42.7782	579.7559	-14.1159	288.0019	-9.0424	111.2213	17.9427	351.5999	-0.0592	0.0182	-0.0073	-0.0462	0.0165	0.9585
51.4353	35.9589	526.68	53.4221	-167.8153	-38.2516	535.7435	-21.3719	326.3556	-14.8217	125.8795	27.8359	397.542	-0.0592	0.0182	-0.0073	-0.0462	0.0165	0.9585
51.4486	34.5084	481.8061	47.4072	-153.2414	-33.1797	490.4511	-27.5159	364.8173	-20.079	140.5981	36.6349	443.0848	-0.0592	0.0182	-0.0073	-0.0462	0.0165	0.9585
51.4619	32.9006	436.2139	40.9706	-138.6108	-27.7554	444.4301	-32.1591	403.7326	-24.4952	155.5209	43.8217	488.6283	-0.0592	0.0182	-0.0073	-0.0462	0.0165	0.9585
51.4751	30.9	390.0989	34.3154	-123.9434	-22.2348	397.8989	-35.1204	442.8649	-27.9902	170.5472	49.2378	533.8953	-0.0592	0.0182	-0.0073	-0.0462	0.0165	0.9585
51.4884	28.3097	343.5313	27.7148	-109.2078	-16.929	350.9154	-36.4652	481.7322	-30.7553	185.4571	53.1365	578.3616	-0.0592	0.0182	-0.0073	-0.0462	0.0165	0.9585
51.5017	24.9804	296.7154	21.5249	-94.4124	-12.2119	303.6628	-36.5209	519.9094	-33.196	200.0311	56.1214	621.6338	-0.0592	0.0182	-0.0073	-0.0462	0.0165	0.9585
51.515	20.8685	250.1927	16.0655	-79.6843	-8.3982	256.653	-35.763	557.1875	-35.8034	214.1266	58.9487	663.5884	-0.0592	0.0182	-0.0073	-0.0462	0.0165	0.9585
51.5283	16.0425	204.9582	11.55	-65.3151	-5.6743	210.8691	-34.7333	593.6292	-38.9726	227.7128	62.2813	704.4054	-0.0592	0.0182	-0.0073	-0.0462	0.0165	0.9585
51.5416	10.767	162.3755	8.0438	-51.7376	-4.0359	167.6635	-33.9227	629.4077	-42.8714	240.8277	66.4945	744.3677	-0.0592	0.0182	-0.0073	-0.0462	0.0165	0.9585
51.5549	5.5198	123.8639	5.4784	-39.4209	-3.2828	128.453	-33.6337	664.5002	-47.3888	253.466	71.5643	783.4899	-0.0592	0.0182	-0.0073	-0.0462	0.0165	0.9585
51.5681	0.85071	90.4692	3.6986	-28.7231	-3.0958	94.3019	-33.926	698.4147	-52.1999	265.4669	77.1292	821.2048	-0.0592	0.0182	-0.0073	-0.0462	0.0165	0.9585
51.5814	-2.7548	62.6762	2.4903	-19.8215	-3.116	65.7129	-34.6829	730.1116	-56.8873	276.4776	82.6596	856.2744	-0.0592	0.0182	-0.0073	-0.0462	0.0165	0.9585
51.5947	-5.0126	40.4726	1.6531	-12.7243	-3.0573	42.7233	-35.7087	758.174	-61.0893	286.0072	87.6574	887.0171	-0.0592	0.0182	-0.0073	-0.0462	0.0165	0.9585
51.608	-5.8431	23.5068	1.0402	-7.3222	-2.7564	25.0364	-36.7708	781.0923	-64.5484	293.531	91.7367	911.6509	-0.0592	0.0182	-0.0073	-0.0462	0.0165	0.9585
51.6213	-5.4539	11.2775	0.57283	-3.4491	-2.2079	12.2023	-37.6594	797.552	-67.117	298.5984	94.6475	928.6405	-0.0592	0.0182	-0.0073	-0.0462	0.0165	0.9585
51.6346	-4.3176	3.1757	0.23054	-0.90019	-1.5448	3.6428	-38.1924	806.7134	-68.7074	300.942	96.2281	937.0034	-0.0592	0.0182	-0.0073	-0.0462	0.0165	0.9585
